<?xml version="1.0" encoding="UTF-8" standalone="no"?>
<!-- Created with Inkscape (http://www.inkscape.org/) -->

<svg
   width="46.746372mm"
   height="10.020092mm"
   viewBox="0 0 46.746372 10.020092"
   version="1.1"
   id="svg1"
   inkscape:export-filename="consortis"
   inkscape:export-xdpi="217.34308"
   inkscape:export-ydpi="217.34308"
   inkscape:version="1.4.3 (0d15f75, 2025-12-25)"
   sodipodi:docname="consortis.svg"
   xmlns:inkscape="http://www.inkscape.org/namespaces/inkscape"
   xmlns:sodipodi="http://sodipodi.sourceforge.net/DTD/sodipodi-0.dtd"
   xmlns="http://www.w3.org/2000/svg"
   xmlns:svg="http://www.w3.org/2000/svg">
  <sodipodi:namedview
     id="namedview1"
     pagecolor="#505050"
     bordercolor="#eeeeee"
     borderopacity="1"
     inkscape:showpageshadow="0"
     inkscape:pageopacity="0"
     inkscape:pagecheckerboard="0"
     inkscape:deskcolor="#d1d1d1"
     inkscape:document-units="mm"
     inkscape:zoom="3.5954826"
     inkscape:cx="113.61479"
     inkscape:cy="55.625356"
     inkscape:window-width="3360"
     inkscape:window-height="1837"
     inkscape:window-x="1728"
     inkscape:window-y="55"
     inkscape:window-maximized="0"
     inkscape:current-layer="layer1" />
  <defs
     id="defs1" />
  <g
     inkscape:label="Layer 1"
     inkscape:groupmode="layer"
     id="layer1"
     transform="translate(-72.835673,-144.16769)">
    <g
       id="group-MC0"
       transform="matrix(0.26458333,0,0,0.26458333,50.442645,89.367967)">
      <path
         id="path3"
         d="m 0,0 c 2.174,-1.524 4.848,-2.299 6.172,-2.299 1.125,0 1.999,0.25 1.999,1.124 0,0.851 -0.65,1.075 -2.399,1.6 -2.824,0.85 -5.647,1.774 -5.647,4.947 0,2.449 2.249,4.398 6.072,4.398 1.824,0 3.374,-0.425 4.923,-1.024 V 5.222 c -1.749,0.701 -3.249,1.1 -4.898,1.1 -1.2,0 -1.724,-0.3 -1.724,-0.924 0,-0.65 0.675,-0.875 2.049,-1.325 2.824,-0.924 6.022,-1.999 6.022,-5.248 0,-2.648 -2.349,-4.547 -6.372,-4.547 -2.774,0 -4.798,0.949 -6.197,1.773 z"
         style="fill:#161315;fill-opacity:1;fill-rule:nonzero;stroke:none"
         transform="matrix(1.3333333,0,0,-1.3333333,151.47773,220.2496)" />
      <path
         id="path4"
         d="m 0,0 v -3.098 h 2.998 c 1.35,0 2.049,0.625 2.049,1.549 C 5.047,-0.599 4.348,0 2.998,0 Z m 8.496,-8.046 c 0.325,-0.699 0.55,-1.15 1.324,-1.15 0.25,0 0.55,0.051 0.8,0.15 v -2.423 c -0.55,-0.225 -1.499,-0.55 -2.724,-0.55 -1.199,0 -2.274,0.5 -2.723,1.449 -1.075,2.274 -0.875,4.349 -3.774,4.349 -0.674,0 -1.174,-0.126 -1.399,-0.201 v -5.347 H -4.048 V 3.223 h 7.121 c 3.974,0 5.973,-2.173 5.973,-4.697 0,-1.524 -0.7,-2.949 -2.124,-3.849 0.624,-0.724 1.099,-1.648 1.574,-2.723"
         style="fill:#161315;fill-opacity:1;fill-rule:nonzero;stroke:none"
         transform="matrix(1.3333333,0,0,-1.3333333,199.97427,211.85387)" />
      <path
         id="path5"
         d="m 0,0 h -4.048 v 11.594 h -4.348 v 3.399 H 4.348 V 11.594 H 0 Z"
         style="fill:#161315;fill-opacity:1;fill-rule:nonzero;stroke:none"
         transform="matrix(1.3333333,0,0,-1.3333333,224.89467,227.546)" />
      <path
         id="path6"
         d="M 0,0 -3.95,-14.993 H -8.147 L -4.196,0 Z"
         style="fill:#ed1a34;fill-opacity:1;fill-rule:nonzero;stroke:none"
         transform="matrix(1.3333333,0,0,-1.3333333,242.1568,207.556)" />
      <path
         id="path7"
         d="m 0,0 c 2.174,-1.524 4.848,-2.299 6.172,-2.299 1.125,0 1.999,0.25 1.999,1.124 0,0.851 -0.65,1.075 -2.399,1.6 -2.824,0.85 -5.647,1.774 -5.647,4.947 0,2.449 2.249,4.398 6.072,4.398 1.824,0 3.374,-0.425 4.923,-1.024 V 5.222 c -1.749,0.701 -3.249,1.1 -4.898,1.1 -1.199,0 -1.724,-0.3 -1.724,-0.924 0,-0.65 0.675,-0.875 2.049,-1.325 2.824,-0.924 6.022,-1.999 6.022,-5.248 0,-2.648 -2.349,-4.547 -6.372,-4.547 -2.774,0 -4.798,0.949 -6.197,1.773 z"
         style="fill:#161315;fill-opacity:1;fill-rule:nonzero;stroke:none"
         transform="matrix(1.3333333,0,0,-1.3333333,244.5556,220.2496)" />
      <path
         id="path8"
         d="m 0,0 c -2.217,0 -4.013,1.797 -4.013,4.013 0,2.216 1.796,4.013 4.013,4.013 2.216,0 4.013,-1.797 4.013,-4.013 C 4.013,1.797 2.216,0 0,0 m 0,11.799 c -4.3,0 -7.786,-3.486 -7.786,-7.786 0,-4.3 3.486,-7.786 7.786,-7.786 4.3,0 7.785,3.486 7.785,7.786 0,4.3 -3.485,7.786 -7.785,7.786"
         style="fill:#161315;fill-opacity:1;fill-rule:nonzero;stroke:none"
         transform="matrix(1.3333333,0,0,-1.3333333,114.98947,222.84907)" />
      <path
         id="path9"
         d="m 0,0 c -2.217,0 -4.013,1.797 -4.013,4.013 0,2.216 1.796,4.013 4.013,4.013 2.216,0 4.013,-1.797 4.013,-4.013 C 4.013,1.797 2.216,0 0,0 m 0,11.799 c -4.3,0 -7.786,-3.486 -7.786,-7.786 0,-4.3 3.486,-7.786 7.786,-7.786 4.3,0 7.785,3.486 7.785,7.786 0,4.3 -3.485,7.786 -7.785,7.786"
         style="fill:#161315;fill-opacity:1;fill-rule:nonzero;stroke:none"
         transform="matrix(1.3333333,0,0,-1.3333333,181.12653,222.84907)" />
      <path
         id="path10"
         d="m 0,0 c -2.216,0 -4.013,1.797 -4.013,4.013 0,2.216 1.797,4.013 4.013,4.013 1.187,0 2.242,-0.524 2.976,-1.343 L 6.13,8.803 C 4.705,10.624 2.492,11.799 0,11.799 c -4.3,0 -7.785,-3.486 -7.785,-7.786 0,-4.3 3.485,-7.785 7.785,-7.785 2.393,0 4.532,1.081 5.96,2.781 L 2.792,1.138 C 2.07,0.436 1.087,0 0,0"
         style="fill:#161315;fill-opacity:1;fill-rule:nonzero;stroke:none"
         transform="matrix(1.3333333,0,0,-1.3333333,95.015067,222.8492)" />
      <path
         id="path11"
         d="M 0,0 H -3.748 V 14.993 H -0.05 L 5.697,6.547 v 8.446 H 9.445 V 0 H 5.747 L 0,8.446 Z"
         style="fill:#161315;fill-opacity:1;fill-rule:nonzero;stroke:none"
         transform="matrix(1.3333333,0,0,-1.3333333,134.72,227.546)" />
      <path
         id="path12"
         d="m 0,0 c -2.216,0 -4.013,1.797 -4.013,4.013 0,2.216 1.797,4.013 4.013,4.013 1.187,0 2.242,-0.524 2.976,-1.343 L 6.13,8.803 C 4.705,10.624 2.492,11.799 0,11.799 c -4.3,0 -7.785,-3.486 -7.785,-7.786 0,-4.3 3.485,-7.785 7.785,-7.785 2.393,0 4.532,1.081 5.96,2.781 L 2.792,1.138 C 2.07,0.436 1.087,0 0,0"
         style="fill:#161315;fill-opacity:1;fill-rule:nonzero;stroke:none"
         transform="matrix(1.3333333,0,0,-1.3333333,95.015067,222.8492)" />
      <path
         id="path13"
         d="m 3.6675031,-3.4557828 v 1.1015625 h 1.9921875 c -0.2460937,0.6796875 -0.9960937,1.1367187 -1.8515625,1.1367187 -1.1953125,0 -1.9804687,-0.8554687 -1.9804687,-2.0859375 0,-1.2421875 0.8085937,-2.0976562 1.9804687,-2.0976562 0.8320313,0 1.5351563,0.4453125 1.828125,1.1601562 h 1.4765625 c -0.3164062,-1.4882812 -1.6757812,-2.53125 -3.328125,-2.53125 -1.96875,0 -3.41015623,1.4882813 -3.41015623,3.46875 0,1.9921875 1.48828123,3.45703129 3.43359373,3.45703129 1.9921875,0 3.3867188,-1.53515629 3.3867188,-3.60937499 z m 10.0927739,0.890625 c 0,-1.4765625 -1.089844,-2.6953125 -2.660157,-2.6953125 -1.5117184,0 -2.6484372,1.171875 -2.6484372,2.7070312 0,1.5351563 1.1367188,2.70703129 2.6484372,2.70703129 1.195313,0 2.167969,-0.71484375 2.542969,-1.82812499 h -1.453125 c -0.210937,0.3632812 -0.609375,0.5976562 -1.089844,0.5976562 -0.667968,0 -1.1249997,-0.3867187 -1.2539059,-1.0898437 H 13.72512 c 0.02344,-0.140625 0.03516,-0.2695313 0.03516,-0.3984375 z M 11.10012,-4.0768766 c 0.621094,0 1.066407,0.3398438 1.265625,0.9726563 H 9.8813703 c 0.1640627,-0.609375 0.5976567,-0.9726563 1.2187497,-0.9726563 z m 6.641602,4.23046879 c 1.582031,0 2.765625,-1.17187499 2.765625,-2.70703129 0,-1.546875 -1.183594,-2.7070312 -2.765625,-2.7070312 -1.582031,0 -2.765625,1.1601562 -2.765625,2.7070312 0,1.5351563 1.183594,2.70703129 2.765625,2.70703129 z m 0,-1.31249999 c -0.796875,0 -1.371094,-0.5625 -1.371094,-1.3945313 0,-0.8320312 0.574219,-1.40625 1.371094,-1.40625 0.796875,0 1.359375,0.5742188 1.359375,1.40625 0,0.8320313 -0.5625,1.3945313 -1.359375,1.3945313 z m 6.137695,1.31249999 c 1.300781,0 2.15625,-0.6796875 2.15625,-1.72265629 0,-1.2539062 -1.078125,-1.4296875 -1.910156,-1.5820312 -0.527344,-0.09375 -0.960938,-0.1757813 -0.960938,-0.515625 0,-0.2929688 0.257813,-0.4804688 0.679688,-0.4804688 0.480469,0 0.761719,0.1992188 0.773437,0.5976563 h 1.324219 c -0.01172,-1.0195313 -0.832031,-1.7109375 -2.0625,-1.7109375 -1.230469,0 -2.050781,0.6679687 -2.050781,1.640625 0,1.2070312 1.042969,1.4179687 1.851562,1.5585937 0.539063,0.09375 0.984375,0.1992188 0.984375,0.5507813 0,0.3398437 -0.351562,0.51562499 -0.726562,0.51562499 -0.492188,0 -0.84375,-0.22265629 -0.855469,-0.67968749 h -1.347656 c 0,1.08984374 0.867187,1.82812499 2.144531,1.82812499 z m 6.518555,-5.41406249 c -0.632813,0 -1.195313,0.2226562 -1.628906,0.6210937 l -0.246094,-0.4804687 h -0.902344 v 6.9726562 h 1.382813 v -2.12109371 c 0.386718,0.26953125 0.867187,0.43359375 1.394531,0.43359375 1.546875,0 2.683594,-1.17187504 2.683594,-2.71875004 0,-1.546875 -1.136719,-2.7070312 -2.683594,-2.7070312 z m -0.105469,4.1015625 c -0.808594,0 -1.394531,-0.5976563 -1.394531,-1.3945313 0,-0.796875 0.585937,-1.40625 1.394531,-1.40625 0.808594,0 1.394531,0.609375 1.394531,1.40625 0,0.796875 -0.585937,1.3945313 -1.394531,1.3945313 z m 8.53418,-3.9609375 -0.152344,0.4804687 c -0.445312,-0.3867187 -1.019531,-0.6210937 -1.6875,-0.6210937 -1.535156,0 -2.671875,1.1601562 -2.671875,2.7070312 0,1.5351563 1.136719,2.70703129 2.671875,2.70703129 0.65625,0 1.230469,-0.22265625 1.664063,-0.62109375 l 0.128906,0.46875 h 1.078125 V -5.1198453 Z m -1.722656,3.9609375 c -0.808594,0 -1.394532,-0.5976563 -1.394532,-1.3945313 0,-0.8085937 0.585938,-1.40625 1.394532,-1.40625 0.808593,0 1.394531,0.5976563 1.394531,1.40625 0,0.796875 -0.585938,1.3945313 -1.394531,1.3945313 z m 7.157226,-0.070312 c -0.503906,0 -0.796875,-0.28125 -0.796875,-0.7851563 v -1.9804687 h 1.394531 v -1.125 h -1.40625 v -1.3242188 h -0.269531 l -2.015625,2.1445313 v 0.3046875 h 0.914063 v 2.1796875 c 0,1.12499999 0.691406,1.81640624 1.816406,1.81640624 h 0.996094 V -1.2292203 Z m 2.150391,-4.5703125 h 1.371093 v -1.2773438 h -1.371093 z m 0,5.80078124 h 1.382812 V -5.1198453 h -1.382812 z m 7.453125,-5.12109374 -0.152344,0.4804687 c -0.445313,-0.3867187 -1.019531,-0.6210937 -1.6875,-0.6210937 -1.535156,0 -2.671875,1.1601562 -2.671875,2.7070312 0,1.5351563 1.136719,2.70703129 2.671875,2.70703129 0.65625,0 1.230469,-0.22265625 1.664062,-0.62109375 l 0.128907,0.46875 h 1.078125 V -5.1198453 Z m -1.722657,3.9609375 c -0.808593,0 -1.394531,-0.5976563 -1.394531,-1.3945313 0,-0.8085937 0.585938,-1.40625 1.394531,-1.40625 0.808594,0 1.394532,0.5976563 1.394532,1.40625 0,0.796875 -0.585938,1.3945313 -1.394532,1.3945313 z m 4.661133,1.16015624 h 1.382813 V -6.9596891 h -1.382813 z m 0,0"
         style="fill:#161315;fill-opacity:1;fill-rule:nonzero;stroke:none"
         aria-label="Geospatial"
         transform="matrix(1.3333333,0,0,1.3333333,147.32093,242.51787)" />
    </g>
  </g>
</svg>
