<?xml version="1.0" encoding="utf-8"?>
<!-- Generator: Adobe Illustrator 27.0.0, SVG Export Plug-In . SVG Version: 6.00 Build 0)  -->
<svg version="1.1" id="Layer_1" xmlns="http://www.w3.org/2000/svg" xmlns:xlink="http://www.w3.org/1999/xlink" x="0px" y="0px"
	 viewBox="0 0 1920 477.96" style="enable-background:new 0 0 1920 477.96;" xml:space="preserve">
<style type="text/css">
	.st0{fill-rule:evenodd;clip-rule:evenodd;}
	.st1{fill-rule:evenodd;clip-rule:evenodd;fill:#FFCC33;}
</style>
<g>
	<path class="st0" d="M483.86,434.31V102.73h44.79l198.56,195.39c6.74,6.53,12.66,12.63,17.85,18.41
		c5.19,5.79,9.83,11.67,14.11,17.67c-1-18.63-1.73-31.8-2.09-39.51c-0.36-7.71-0.55-13.71-0.55-17.88V102.73h58.91v331.58h-44.8
		L563.61,229.49c-5.01-5.24-9.38-9.96-13.11-14.13c-3.73-4.17-7.2-8.46-10.38-12.85c0.82,10.17,1.55,19.91,2,29.01
		c0.45,9.1,0.64,16.91,0.64,23.66v179.12H483.86z"/>
	<polygon class="st0" points="1379.82,434.31 1205.03,102.72 1285.4,102.72 1407.84,342.45 1524.53,102.72 1594.64,102.72 
		1428.45,434.31 	"/>
	<path class="st0" d="M1631.36,301.98h125.13l-61.64-134.91L1631.36,301.98L1631.36,301.98z M1503.45,434.31l161.68-331.59h64.04
		l163.89,331.59h-74.65l-34.33-72.38h-181.15l-33.22,72.38H1503.45z"/>
	<path class="st0" d="M856.88,181.21c0-30.19,4.61-50.75,13.74-61.88c9.21-11.02,26.86-16.6,53.03-16.6h198.04
		c26.17,0,43.82,5.57,53.03,16.6c9.14,11.13,13.74,31.69,13.74,61.88v174.72c0,30.3-4.6,50.97-13.74,61.89
		c-9.21,11.02-26.86,16.49-53.03,16.49H923.65c-26.17,0-43.81-5.46-53.03-16.49c-9.13-10.92-13.74-31.58-13.74-61.89V181.21
		L856.88,181.21z M919.56,371.89h206.47V162.04H919.56V371.89z"/>
	<polygon class="st1" points="338.79,102.73 27.94,102.73 27.94,434.31 359.5,434.31 359.52,123.46 338.79,123.46 	"/>
	<polygon class="st0" points="442.42,102.73 442.42,434.31 380.24,434.31 380.24,123.46 400.97,123.46 400.97,102.74 	"/>
	<polygon class="st1" points="380.24,19.84 442.42,19.84 442.42,82.01 400.97,82.01 400.97,61.29 380.24,61.29 	"/>
	<polygon class="st1" points="359.52,19.84 27.94,19.84 27.94,82.01 338.79,82.01 338.79,61.29 359.52,61.29 	"/>
</g>
</svg>
