<svg width="167" height="40" viewBox="0 0 167 40" fill="none" xmlns="http://www.w3.org/2000/svg">
    <style>
        .fill-current { fill: #575756; }
    </style>
    <g clip-path="url(#clip0_1191_6315)">
        <path d="M156.397 13.6956L146.061 34.239H140.642L151.108 14.0148C151.579 12.9559 150.862 12.439 148.957 12.4644H137.192L135.208 9.05188H152.423C156.648 9.04681 157.976 10.5973 156.405 13.7032" fill="#A9C23F"></path>
        <path d="M24.6475 16.2113L6.12578 34.239H0L1.64165 16.2113H7.66863L6.07258 28.4629L19.069 16.2113H24.6475Z" class="fill-current"></path>
        <path d="M19.084 34.239L28.1435 16.2113H33.9728L24.807 34.239H19.084Z" class="fill-current"></path>
        <path d="M48.6792 19.6998H43.7999C42.5382 19.6998 41.5958 20.095 40.965 20.893L36.4808 29.6561L34.1932 34.239H28.417L30.355 30.5073L35.736 19.7986C36.7316 17.3437 38.8901 16.1657 42.2114 16.2645H52.4793L50.6857 19.6998H48.6792Z" class="fill-current"></path>
        <path d="M59.6468 19.6998L58.9019 20.893L54.4178 29.6561C54.4862 30.5225 55.117 30.9177 56.3103 30.8493H62.1852L60.5132 34.239H53.6198C49.9033 34.239 48.1248 32.9926 48.292 30.5073L53.8706 19.4034L59.0996 9.04427H64.6781L61.1896 16.2645H69.2687L67.627 19.6998H59.6468Z" class="fill-current"></path>
        <path d="M87.6082 16.1657H93.1868L91.5907 19.6542L86.3162 30.6061C85.2217 33.0306 82.4857 34.239 78.1003 34.239H70.9713C67.1864 34.239 65.2939 33.3574 65.2939 31.6017C65.2939 31.3357 65.3775 30.9557 65.5447 30.4541L71.1233 19.3502L72.7194 16.1657H78.7463L76.1547 20.8474L71.6705 29.6105C71.7085 30.3401 72.3394 30.7049 73.563 30.7049H78.8983C79.628 30.6365 80.2436 30.2717 80.7376 29.6105L85.2673 20.8474L87.6082 16.1657Z" class="fill-current"></path>
        <path d="M110.91 23.3327L112.256 20.8398C112.157 20.0418 111.64 19.6466 110.713 19.6466H95.33L96.9792 16.1581H111.67C116.185 16.1581 118.495 17.3209 118.594 19.6466L113.32 30.5985C112.225 33.023 109.489 34.2314 105.104 34.2314H95.444C91.6591 34.2314 89.7666 33.3498 89.7666 31.5941C89.7666 31.3281 89.8502 30.9481 90.0174 30.4465L92.8067 24.9211C93.3767 23.8571 94.3343 23.3251 95.6948 23.3251H110.933L110.91 23.3327ZM105.879 26.92H97.5112L96.1128 29.6105C96.1508 30.3401 96.7816 30.7049 98.0052 30.7049L105.871 30.7581C106.601 30.6593 107.262 30.2793 107.863 29.6105L109.307 26.92H105.871H105.879Z" class="fill-current"></path>
        <path d="M133.301 9.03667L120.707 34.239H114.977L127.722 9.03667H133.301Z" class="fill-current"></path>
        <path d="M35.812 12.4796H29.9902L31.6927 9.02907H37.5145L35.812 12.4796Z" fill="#A9C23F"></path>
        <path d="M146.168 40C157.211 40 166.172 31.0469 166.172 19.9962C166.172 8.94547 157.211 0 146.168 0C140.012 0 134.509 2.78168 130.838 7.15941H134.258C137.382 4.25613 141.57 2.48527 146.175 2.48527C155.851 2.48527 163.694 10.3287 163.694 20.0038C163.694 29.6789 155.851 37.5223 146.175 37.5223C137.26 37.5223 129.911 30.8645 128.809 22.2535L127.038 25.8104C129.523 34.0262 137.154 40.0076 146.183 40.0076L146.168 40Z" fill="#A9C23F"></path>
    </g>
    <defs>
        <clipPath id="clip0_1191_6315">
            <rect width="166.164" height="40" fill="white"></rect>
        </clipPath>
    </defs>
</svg>
