<?xml version="1.0" encoding="utf-8"?>
<!-- Generator: Adobe Illustrator 26.3.1, SVG Export Plug-In . SVG Version: 6.00 Build 0)  -->
<svg version="1.1" id="Calque_1" xmlns="http://www.w3.org/2000/svg" xmlns:xlink="http://www.w3.org/1999/xlink" x="0px" y="0px"
	 viewBox="0 0 407.62 221.61" style="enable-background:new 0 0 407.62 221.61;" xml:space="preserve">
<style type="text/css">
	.st0{fill:#FF680A;}
	.st1{fill:#7A7F82;}
	.st2{fill:#FFFFFF;}
</style>
<path class="st0" d="M100.92,116.88c0,7.32-4.82,13.52-12.87,13.52c-7.78,0-13.06-6.39-13.06-13.71v-0.19
	c0-7.32,4.82-13.52,12.87-13.52c7.78,0,13.06,6.39,13.06,13.7V116.88z M114.81,116.7v-0.19c0-14.26-11.39-25.65-26.77-25.65
	c-15.47,0-26.95,11.58-26.95,25.84v0.18c0,14.26,11.39,25.65,26.76,25.65C103.33,142.54,114.81,130.96,114.81,116.7z"/>
<path class="st1" d="M253.84,46.43c0,8.34-5.56,13.71-12.13,13.71c-6.58,0-12.04-5.46-12.04-13.71v-0.19
	c0-8.24,5.46-13.71,12.04-13.71c6.57,0,12.13,5.46,12.13,13.71V46.43z M266.51,46.43v-0.19c0-16.58-11.02-25.65-22.6-25.65
	c-7.32,0-12.04,3.43-15.47,8.06v-7.13h-13.23v64.46h13.23v-21.3c3.33,3.98,7.96,7.41,15.47,7.41
	C255.68,72.08,266.51,63.01,266.51,46.43z"/>
<path class="st1" d="M206.61,71.16V38.84c0-11.95-6.3-18.24-16.76-18.24c-6.76,0-11.95,2.78-16.3,7.87c-2.59-5-7.5-7.87-13.99-7.87
	c-7.13,0-11.39,3.8-14.63,7.96v-7.04h-14.08v49.64h14.08V43.47c0-6.67,3.24-10.1,8.52-10.1c5.28,0,8.24,3.43,8.24,10.1v27.69h14.08
	V43.47c0-6.67,3.24-10.1,8.52-10.1c5.28,0,8.24,3.43,8.24,10.1v27.69H206.61z"/>
<path class="st1" d="M97.94,62.1c-3.99,0-6.43-2.09-6.43-4.74c0-3.06,1.47-4.64,5.87-5.28c9.16-1.35,11.41-2.71,11.41-2.71
	C110.14,60.55,102.2,62.1,97.94,62.1z M122.44,71.14c0,0-0.08-23.87-0.08-32.23c0-9.89-7.68-18.32-22.15-18.32
	c-14.71,0-21.42,8.29-21.42,19.16h13.14c0.17-1.15-0.43-7.03,7.86-7.03c5.98,0,8.86,1.76,8.86,4.78c0,8.3-30.43-1.26-30.43,20.78
	c0,10.69,7.81,13.99,15.12,13.99c11.25,0,15.31-6.35,15.31-6.35l-0.12,5.2L122.44,71.14z"/>
<path class="st1" d="M59.71,53.27c-0.64,2.75-3.78,6.87-10.36,6.87c-7.69,0-12.59-6.11-12.59-13.71v-0.19
	c0-7.32,5-13.52,12.04-13.52c6.9,0,9.99,3.77,10.92,7.02h13.14c-0.21-6.2-5.9-19.15-23.97-19.15c-15.19,0-26.02,11.67-26.02,25.84
	v0.18c0,14.17,10.93,25.65,25.84,25.65c17.8,0,23.94-13.16,24.15-19H59.71z"/>
<path class="st1" d="M351.12,116.7c0,8.34-5.56,13.71-12.13,13.71c-6.58,0-12.04-5.46-12.04-13.71v-0.19
	c0-8.24,5.46-13.71,12.04-13.71c6.57,0,12.13,5.46,12.13,13.71V116.7z M363.79,116.7v-0.19c0-16.58-11.02-25.65-22.6-25.65
	c-7.32,0-12.04,3.43-15.47,8.06v-7.13h-13.23v64.46h13.23v-21.3c3.33,3.98,7.96,7.41,15.47,7.41
	C352.95,142.35,363.79,133.28,363.79,116.7z"/>
<path class="st1" d="M303.89,141.42V109.1c0-11.95-6.3-18.24-16.76-18.24c-6.76,0-11.95,2.78-16.3,7.87c-2.59-5-7.5-7.87-13.99-7.87
	c-7.13,0-11.39,3.8-14.63,7.96v-7.04h-14.08v49.64h14.08v-27.69c0-6.67,3.24-10.1,8.52-10.1c5.28,0,8.24,3.43,8.24,10.1v27.69h14.08
	v-27.69c0-6.67,3.24-10.1,8.52-10.1c5.28,0,8.24,3.43,8.24,10.1v27.69H303.89z"/>
<path class="st1" d="M195.22,132.36c-3.99,0-6.43-2.09-6.43-4.74c0-3.06,1.47-4.64,5.87-5.28c9.16-1.35,11.41-2.71,11.41-2.71
	C207.42,130.82,199.48,132.36,195.22,132.36z M219.71,141.4c0,0-0.08-23.87-0.08-32.23c0-9.89-7.68-18.32-22.15-18.32
	c-14.71,0-21.42,8.29-21.42,19.16h13.14c0.17-1.15-0.43-7.03,7.86-7.03c5.98,0,8.86,1.76,8.86,4.78c0,8.3-30.43-1.26-30.43,20.78
	c0,10.69,7.8,13.99,15.12,13.99c11.25,0,15.31-6.35,15.31-6.35l-0.12,5.2L219.71,141.4z"/>
<path class="st1" d="M156.99,123.53c-0.64,2.75-3.78,6.87-10.36,6.87c-7.69,0-12.59-6.11-12.59-13.71v-0.19
	c0-7.32,5-13.52,12.04-13.52c6.9,0,9.99,3.77,10.92,7.02h13.14c-0.21-6.2-5.9-19.15-23.97-19.15c-15.19,0-26.02,11.67-26.02,25.84
	v0.18c0,14.17,10.93,25.65,25.84,25.65c17.8,0,23.94-13.16,24.15-19H156.99z"/>
<g>
	<path class="st0" d="M57.15,129.68c0,0-1.86,0.2-5,0.2c-3.14,0-4.93-1.97-4.93-5.24v-20.81h10.26V91.79H47.22V79.1H33.14v12.69
		h-7.89v12.04h7.89v22.65c0,11.49,5.77,15.5,14.45,15.5c6.06,0,9.56-0.59,9.56-0.59V129.68z"/>
</g>
<path class="st1" d="M285.93,190.87c-0.12-2.92-2.45-4.34-5.31-4.34c-2.86,0-5.09,1.4-5.09,4.22c0,2.52,1.68,3.45,5.13,4.22
	c1.58,0.34,2.92,0.67,2.92,1.99c0,1.12-0.95,1.81-2.6,1.81c-1.74,0-2.98-0.85-3.21-2.78h-2.62c0.12,3.25,2.74,5.03,5.8,5.03
	c2.84,0,5.19-1.5,5.19-4.3c0-2.58-1.77-3.35-4.87-4c-1.76-0.39-3.22-0.77-3.22-2.13c0-1.2,0.95-1.83,2.52-1.83
	c1.42,0,2.58,0.57,2.76,2.11H285.93z"/>
<polygon class="st1" points="262.36,186.87 262.36,189.25 266.92,189.25 266.92,200.67 269.45,200.67 269.45,189.25 274,189.25 
	274,186.87 "/>
<path class="st1" d="M258.24,194.89c1.77-0.61,2.76-2.15,2.76-3.93c0-2.13-1.36-4.1-4.42-4.1h-5.96v13.81h2.53v-5.21h2.66l3.08,5.21
	h2.96L258.24,194.89z M256.21,193.2h-3.06v-3.94h3.23c1.36,0,2.05,0.85,2.05,1.91C258.44,192.33,257.63,193.2,256.21,193.2z"/>
<polygon class="st1" points="238.7,200.67 248.24,200.67 248.24,198.29 241.22,198.29 241.22,194.89 247.32,194.89 247.32,192.49 
	241.22,192.49 241.22,189.25 247.89,189.25 247.89,186.87 238.7,186.87 "/>
<path class="st1" d="M232.13,186.87h-6.06v13.81h2.52v-4.89h3.25c3.08,0,4.64-2.15,4.64-4.58
	C236.49,188.96,235.07,186.87,232.13,186.87z M231.62,193.45h-3.02v-4.2h3.12c1.44,0,2.21,0.85,2.21,2.07
	C233.92,192.61,233.1,193.45,231.62,193.45z"/>
<polygon class="st1" points="215.9,193.53 210.93,200.67 214.04,200.67 217.37,195.66 220.73,200.67 223.88,200.67 218.89,193.47 
	223.47,186.87 220.39,186.87 217.39,191.36 214.4,186.87 211.26,186.87 "/>
<polygon class="st1" points="200.08,200.67 209.62,200.67 209.62,198.29 202.6,198.29 202.6,194.89 208.7,194.89 208.7,192.49 
	202.6,192.49 202.6,189.25 209.27,189.25 209.27,186.87 200.08,186.87 "/>
<polygon class="st1" points="183.41,200.67 192.96,200.67 192.96,198.29 185.94,198.29 185.94,194.89 192.03,194.89 192.03,192.49 
	185.94,192.49 185.94,189.25 192.6,189.25 192.6,186.87 183.41,186.87 "/>
<path class="st1" d="M178.36,195.56c-0.1,2.05-1.66,3.1-3.59,3.1c-2.9,0-4.16-2.33-4.16-4.89c0-2.86,1.56-4.89,4.24-4.89
	c1.93,0,3.27,1.09,3.41,2.62h2.58c-0.26-3.12-2.7-4.97-5.9-4.97c-4.16,0-6.9,3.12-6.9,7.3c0,3.71,2.13,7.2,6.67,7.2
	c3.27,0,6.08-1.83,6.21-5.46H178.36z"/>
<path class="st1" d="M163.33,194.89c1.78-0.61,2.76-2.15,2.76-3.93c0-2.13-1.36-4.1-4.42-4.1h-5.96v13.81h2.52v-5.21h2.66l3.08,5.21
	h2.96L163.33,194.89z M161.3,193.2h-3.06v-3.94h3.24c1.36,0,2.05,0.85,2.05,1.91C163.53,192.33,162.72,193.2,161.3,193.2z"/>
<path class="st1" d="M150.12,195.6c0,2.05-1.16,3-3.04,3c-1.97,0-3.21-1.06-3.21-3.21v-8.52h-2.52v8.64c0,3.63,2.39,5.52,5.68,5.52
	c3.31,0,5.62-1.91,5.62-5.52v-8.64h-2.52V195.6z"/>
<path class="st1" d="M132.11,186.53c-4.36,0-6.82,3.29-6.82,7.24c0,3.96,2.46,7.26,6.82,7.26c4.38,0,6.82-3.29,6.82-7.24
	C138.93,189.82,136.49,186.53,132.11,186.53z M132.11,198.56c-2.8,0-4.26-2.21-4.26-4.81s1.48-4.75,4.26-4.75
	c2.82,0,4.26,2.21,4.26,4.81C136.37,196.41,134.91,198.56,132.11,198.56z"/>
<path class="st1" d="M123.27,190.87c-0.12-2.92-2.45-4.34-5.31-4.34c-2.86,0-5.09,1.4-5.09,4.22c0,2.52,1.68,3.45,5.13,4.22
	c1.58,0.34,2.92,0.67,2.92,1.99c0,1.12-0.95,1.81-2.6,1.81c-1.74,0-2.98-0.85-3.21-2.78h-2.62c0.12,3.25,2.74,5.03,5.8,5.03
	c2.84,0,5.19-1.5,5.19-4.3c0-2.58-1.77-3.35-4.87-4c-1.76-0.39-3.21-0.77-3.21-2.13c0-1.2,0.95-1.83,2.52-1.83
	c1.42,0,2.58,0.57,2.76,2.11H123.27z"/>
<polygon class="st1" points="102.9,186.87 102.9,196.59 96.65,186.87 93.89,186.87 93.89,200.67 96.39,200.67 96.39,190.83 
	102.76,200.67 105.4,200.67 105.4,186.87 "/>
<polygon class="st1" points="81.95,200.67 91.5,200.67 91.5,198.29 84.48,198.29 84.48,194.89 90.57,194.89 90.57,192.49 
	84.48,192.49 84.48,189.25 91.14,189.25 91.14,186.87 81.95,186.87 "/>
<path class="st1" d="M75.38,186.87h-6.06v13.81h2.52v-4.89h3.25c3.08,0,4.64-2.15,4.64-4.58C79.74,188.96,78.32,186.87,75.38,186.87
	z M74.87,193.45h-3.02v-4.2h3.12c1.44,0,2.21,0.85,2.21,2.07C77.18,192.61,76.35,193.45,74.87,193.45z"/>
<path class="st1" d="M60.3,186.53c-4.36,0-6.82,3.29-6.82,7.24c0,3.96,2.46,7.26,6.82,7.26c4.38,0,6.82-3.29,6.82-7.24
	C67.12,189.82,64.68,186.53,60.3,186.53z M60.3,198.56c-2.8,0-4.26-2.21-4.26-4.81S57.52,189,60.3,189c2.82,0,4.26,2.21,4.26,4.81
	C64.56,196.41,63.1,198.56,60.3,198.56z"/>
<polygon class="st1" points="42.76,192.96 39.45,186.87 36.45,186.87 41.46,195.17 41.46,200.67 44,200.67 44,195.17 48.99,186.87 
	46.08,186.87 "/>
<path class="st1" d="M33.26,193.39c1.38-0.47,2.09-1.83,2.09-3.16c0-1.66-1.18-3.37-3.71-3.37h-6.53v13.81h6.19
	c2.9,0,4.52-1.89,4.52-3.92C35.82,195.27,34.95,193.87,33.26,193.39z M27.63,189.25h3.43c1.18,0,1.74,0.67,1.74,1.5
	c0,0.89-0.63,1.68-1.91,1.68h-3.25V189.25z M31.07,198.29h-3.43v-3.79h3.57c1.38,0,2.09,0.87,2.09,1.83
	C33.29,197.32,32.59,198.29,31.07,198.29z"/>
<path class="st1" d="M264.67,168.57c-0.12-2.92-2.45-4.34-5.31-4.34c-2.86,0-5.09,1.4-5.09,4.22c0,2.52,1.68,3.45,5.13,4.22
	c1.58,0.34,2.92,0.67,2.92,1.99c0,1.12-0.95,1.81-2.6,1.81c-1.74,0-2.98-0.85-3.21-2.78h-2.62c0.12,3.25,2.74,5.03,5.8,5.03
	c2.84,0,5.19-1.5,5.19-4.3c0-2.58-1.77-3.35-4.87-4c-1.76-0.39-3.21-0.77-3.21-2.13c0-1.2,0.95-1.83,2.52-1.83
	c1.42,0,2.58,0.57,2.76,2.11H264.67z"/>
<polygon class="st1" points="248.64,164.57 248.64,174.29 242.38,164.57 239.62,164.57 239.62,178.38 242.13,178.38 242.13,168.53 
	248.5,178.38 251.14,178.38 251.14,164.57 "/>
<path class="st1" d="M230.2,164.24c-4.36,0-6.82,3.29-6.82,7.24c0,3.96,2.47,7.26,6.82,7.26c4.38,0,6.82-3.29,6.82-7.24
	C237.02,167.53,234.57,164.24,230.2,164.24z M230.2,176.27c-2.8,0-4.26-2.21-4.26-4.81c0-2.6,1.48-4.75,4.26-4.75
	c2.82,0,4.26,2.21,4.26,4.81C234.46,174.12,233,176.27,230.2,176.27z"/>
<rect x="218.14" y="164.57" class="st1" width="2.52" height="13.81"/>
<polygon class="st1" points="204.48,164.57 204.48,166.96 209.03,166.96 209.03,178.38 211.56,178.38 211.56,166.96 216.11,166.96 
	216.11,164.57 "/>
<path class="st1" d="M200.22,173.31c0,2.05-1.16,3-3.04,3c-1.97,0-3.21-1.06-3.21-3.21v-8.52h-2.52v8.64c0,3.63,2.39,5.52,5.68,5.52
	c3.31,0,5.62-1.91,5.62-5.52v-8.64h-2.52V173.31z"/>
<polygon class="st1" points="183.08,175.99 183.08,164.57 180.55,164.57 180.55,178.38 189.55,178.38 189.55,175.99 "/>
<path class="st1" d="M171.12,164.24c-4.36,0-6.82,3.29-6.82,7.24c0,3.96,2.47,7.26,6.82,7.26c4.38,0,6.82-3.29,6.82-7.24
	C177.95,167.53,175.5,164.24,171.12,164.24z M171.12,176.27c-2.8,0-4.26-2.21-4.26-4.81c0-2.6,1.48-4.75,4.26-4.75
	c2.82,0,4.26,2.21,4.26,4.81C175.38,174.12,173.92,176.27,171.12,176.27z"/>
<path class="st1" d="M162.29,168.57c-0.12-2.92-2.45-4.34-5.31-4.34s-5.09,1.4-5.09,4.22c0,2.52,1.68,3.45,5.13,4.22
	c1.58,0.34,2.92,0.67,2.92,1.99c0,1.12-0.95,1.81-2.6,1.81c-1.74,0-2.98-0.85-3.21-2.78h-2.62c0.12,3.25,2.74,5.03,5.8,5.03
	c2.84,0,5.19-1.5,5.19-4.3c0-2.58-1.77-3.35-4.87-4c-1.76-0.39-3.21-0.77-3.21-2.13c0-1.2,0.95-1.83,2.52-1.83
	c1.42,0,2.58,0.57,2.76,2.11H162.29z"/>
<polygon class="st1" points="134.44,178.38 143.98,178.38 143.98,175.99 136.96,175.99 136.96,172.6 143.06,172.6 143.06,170.19 
	136.96,170.19 136.96,166.96 143.63,166.96 143.63,164.57 134.44,164.57 "/>
<polygon class="st1" points="125.94,175.08 122.11,164.57 119.39,164.57 124.79,178.38 127.02,178.38 132.45,164.57 129.76,164.57 
	"/>
<rect x="114.75" y="164.57" class="st1" width="2.52" height="13.81"/>
<polygon class="st1" points="101.09,164.57 101.09,166.96 105.64,166.96 105.64,178.38 108.17,178.38 108.17,166.96 112.72,166.96 
	112.72,164.57 "/>
<path class="st1" d="M96.45,164.57h-2.8l-5.46,13.81h2.74l1.2-3.27h5.78l1.2,3.27h2.8L96.45,164.57z M92.96,172.74l2.05-5.54
	l2.05,5.54H92.96z"/>
<polygon class="st1" points="82.05,175.08 78.23,164.57 75.5,164.57 80.91,178.38 83.14,178.38 88.56,164.57 85.88,164.57 "/>
<polygon class="st1" points="55.98,164.57 55.98,174.29 49.72,164.57 46.96,164.57 46.96,178.38 49.47,178.38 49.47,168.53 
	55.84,178.38 58.48,178.38 58.48,164.57 "/>
<polygon class="st1" points="40.53,164.57 40.53,174.29 34.28,164.57 31.52,164.57 31.52,178.38 34.02,178.38 34.02,168.53 
	40.4,178.38 43.04,178.38 43.04,164.57 "/>
<rect x="25.21" y="164.57" class="st1" width="2.52" height="13.81"/>
<path class="st1" d="M68.15,164.24c-4.36,0-6.82,3.29-6.82,7.24c0,3.96,2.47,7.26,6.82,7.26c4.38,0,6.82-3.29,6.82-7.24
	C74.97,167.53,72.53,164.24,68.15,164.24z M68.15,176.27c-2.8,0-4.26-2.21-4.26-4.81c0-2.6,1.48-4.75,4.26-4.75
	c2.82,0,4.26,2.21,4.26,4.81C72.41,174.12,70.95,176.27,68.15,176.27z"/>
<g>
	<rect x="373.32" y="71.2" class="st0" width="2.29" height="2.29"/>
	<rect x="371.04" y="73.49" class="st0" width="2.29" height="2.29"/>
	<rect x="368.75" y="75.78" class="st0" width="2.29" height="2.29"/>
	<rect x="366.46" y="78.06" class="st0" width="2.29" height="2.29"/>
	<rect x="364.18" y="80.35" class="st0" width="2.29" height="4.57"/>
	<polygon class="st0" points="382.47,82.64 382.47,80.35 380.19,80.35 380.19,75.78 377.9,75.78 377.9,73.49 375.61,73.49 
		375.61,78.06 373.32,78.06 373.32,80.35 375.61,80.35 375.61,82.64 373.32,82.64 373.32,80.35 371.04,80.35 371.04,82.64 
		368.75,82.64 368.75,84.93 366.46,84.93 366.46,87.21 364.18,87.21 364.18,84.93 361.89,84.93 361.89,91.79 384.76,91.79 
		384.76,82.64 	"/>
</g>
</svg>
