<svg xmlns="http://www.w3.org/2000/svg" width="417" height="179.29" viewBox="0 0 417 179.29">
  <g id="Group_95" data-name="Group 95" transform="translate(-400 -44)">
    <path id="Path_1" data-name="Path 1" d="M-587.832,226.212c.085,58.617-55.942,74.131-70.241,80.654-14.3-6.523-70.325-22.037-70.241-80.654V137.625h140.482Zm4.592,0V132.6H-732.905v93.611c-.084,54.386,43.445,74.131,74.832,85.679,31.386-11.548,74.917-31.293,74.832-85.679" transform="translate(1132.905 -88.601)" fill="#00acec"/>
    <path id="Path_2" data-name="Path 2" d="M-725.284,140.379v22.138l64.673-22.138Zm129.512,0v22.138l-64.673-22.138Z" transform="translate(1135.36 -86.097)" fill="#00acec"/>
    <path id="Path_3" data-name="Path 3" d="M-660.558,219.652l-64.627-.033c0-.074,0-.172,0-.246.148-37,29.208-66.876,64.894-66.723,35.566.153,64.347,30.094,64.358,66.97Z" transform="translate(1135.391 -82.146)" fill="#00acec"/>
    <path id="Path_4" data-name="Path 4" d="M-660.54,214.307h63.681l1.02-6.349h-129.4l1.021,6.349Z" transform="translate(1135.372 -64.338)" fill="#00acec"/>
    <path id="Path_5" data-name="Path 5" d="M-661.037,223.642h-60.212l-2.45-6.56h125.322l-2.45,6.56Z" transform="translate(1135.869 -61.4)" fill="#00acec"/>
    <path id="Path_6" data-name="Path 6" d="M-662.18,232.663h54.906l3.06-6.137H-720.148l3.063,6.137Z" transform="translate(1137.013 -58.359)" fill="#00acec"/>
    <path id="Path_7" data-name="Path 7" d="M-663.984,241.576h-45.861l-4.9-5.925H-613.1l-4.9,5.925Z" transform="translate(1138.754 -55.421)" fill="#00acec"/>
    <path id="Path_8" data-name="Path 8" d="M-666.8,250.8h30l8.981-6.348h-77.969l8.981,6.348Z" transform="translate(1141.635 -52.586)" fill="#00acec"/>
    <path id="Path_9" data-name="Path 9" d="M-672.186,261.146l17.208-7.406h-34.291Z" transform="translate(1146.955 -49.597)" fill="#00acec"/>
    <path id="Path_10" data-name="Path 10" d="M-373.255,234.07c2.688-3.725,5.62-5.426,8.552-5.426a11.15,11.15,0,0,1,4.4.729l.814-10.53a13.64,13.64,0,0,0-3.095-.243c-3.99,0-7.9,2.025-11.32,8.019l-.407-7.533H-383.6v38.877h10.342Zm-28.909,1.3c-1.3-.082-2.688-.163-4.154-.163-9.04,0-19.3,2.187-19.3,12.149,0,7.452,5.049,11.42,12.3,11.42a13.861,13.861,0,0,0,11.808-6.237c.652,3.725,3.177,6.237,8.145,6.237a24.015,24.015,0,0,0,5.782-.891l-.489-7.289c-2.036.648-3.746.243-3.746-3.483l.082-15.388c0-10.368-6.434-13.688-15.312-13.688-9.365,0-16.287,4.536-16.287,10.934a10.456,10.456,0,0,0,.65,3.4l8.877-1.215c-1.14-4.131,2.77-5.346,5.782-5.346,4.072,0,5.945,1.539,5.945,6.479Zm0,11.258a10.064,10.064,0,0,1-7.9,4.373c-2.606,0-4.968-1.3-4.968-4.373,0-4.212,4.072-5.427,8.8-5.427a35.262,35.262,0,0,1,4.073.243Zm-39.742-19.358h12.378v-7.776h-12.378v-10.2h-8.959l-1.3,10.2-5.946.648v7.128h5.783v18.547c0,9.719,5.62,12.959,13.113,12.959a26.766,26.766,0,0,0,11.808-2.916l-1.711-8.261a12.25,12.25,0,0,1-7.166,2.915c-3.665,0-5.456-1.619-5.618-6.64Zm-29.562,19.519c0,3.24-3.013,4.131-6.679,4.131a19.177,19.177,0,0,1-11.076-4.131l-2.524,8.747c3.42,2.025,8.713,3.24,13.763,3.24,8.633,0,17.346-3.16,17.346-12.312,0-13.525-19.789-11.906-19.789-17.17,0-2.754,3.42-3.483,5.781-3.483a13.58,13.58,0,0,1,10.261,4.131l3.014-8.586c-3.746-2.267-8.225-3.319-14.17-3.319-8.063,0-15.636,4.13-15.636,11.258,0,13.688,19.708,11.015,19.708,17.494m-53.342-8.5c0-7.209,2.28-12.149,9.121-12.149,7.411,0,9.447,5.507,9.447,12.149,0,7.937-2.036,12.392-9.447,12.392-6.434,0-9.121-4.455-9.121-12.392m-10.913.081c0,12.879,7.656,20.411,20.279,20.411,12.867,0,20.115-9.234,20.115-20.411,0-12.31-7.166-20.328-20.2-20.328-12.3,0-20.2,8.746-20.2,20.328m-14.985,19.6h9.854V205.236h-12.135l-8.632,22.031-7.085,20.977-7.33-20.816-8.8-22.11h-12.7v52.645h9.692V237.958l-.082-15.388,5.782,16.36,7.329,19.034h11.565L-556,238.2l5.293-15.956Z" transform="translate(1176.492 -65.214)" fill="#00acec"/>
    <path id="Path_11" data-name="Path 11" d="M-456.38,197.672c-2.43,2.673-5.507,4.536-8.586,4.536-5.1,0-8.342-3.4-8.342-11.582,0-7.7,4.049-11.825,10.367-11.825a12.413,12.413,0,0,1,6.561,1.7Zm10.367-42.684H-456.38v16.361a39.208,39.208,0,0,0-7.128-.81c-12.149,0-20.653,7.939-20.653,21.14,0,12.068,5.59,19.6,15.956,19.6,4.778,0,9.476-2.836,12.473-6.157l.324,5.346h9.4ZM-500.2,187.871c-1.3-.081-2.673-.161-4.13-.161-8.991,0-19.2,2.186-19.2,12.149,0,7.451,5.022,11.421,12.231,11.421a13.763,13.763,0,0,0,11.743-6.237c.648,3.725,3.16,6.237,8.1,6.237a23.823,23.823,0,0,0,5.751-.891l-.486-7.289c-2.024.648-3.725.242-3.725-3.483l.081-15.389c0-10.367-6.4-13.688-15.227-13.688-9.313,0-16.2,4.536-16.2,10.934a10.526,10.526,0,0,0,.648,3.4l8.828-1.215c-1.134-4.131,2.753-5.346,5.75-5.346,4.049,0,5.912,1.539,5.912,6.479Zm0,11.259c-1.539,2.024-4.13,4.373-7.857,4.373-2.591,0-4.94-1.3-4.94-4.373,0-4.212,4.049-5.427,8.748-5.427a35.147,35.147,0,0,1,4.049.242Zm-38.634-12.555c2.673-3.725,5.59-5.427,8.5-5.427a11.047,11.047,0,0,1,4.374.73l.809-10.53a13.485,13.485,0,0,0-3.077-.243c-3.969,0-7.857,2.025-11.258,8.019l-.4-7.533h-9.234v38.877h10.286Zm-26.483-2.187v17.333a19.582,19.582,0,0,1-6.155.972c-9.071,0-15.957-4.86-15.957-18.709,0-13.04,6.4-18.223,15.633-18.223A20.831,20.831,0,0,1-559,170.7l3.564-9.639a33.75,33.75,0,0,0-15.956-3.969c-14.822,0-27.132,8.5-27.132,27.052,0,18.386,9.963,27.134,25.107,27.134a38.289,38.289,0,0,0,18.467-5.1V184.389Z" transform="translate(1176.175 -81.393)" fill="#00acec"/>
  </g>
</svg>
